<?xml version="1.0" encoding="utf-8"?>
<!-- Generator: Adobe Illustrator 19.1.0, SVG Export Plug-In . SVG Version: 6.00 Build 0)  -->
<svg version="1.1" id="Isolation_Mode" xmlns="http://www.w3.org/2000/svg" xmlns:xlink="http://www.w3.org/1999/xlink" x="0px"
	 y="0px" viewBox="0 0 81.6 74.2" enable-background="new 0 0 81.6 74.2" xml:space="preserve">
<g>
	<path fill="#F7971D" d="M5.5,12.2L5.5,12.2l0.4,0.1c0-0.1-0.1-0.1-0.2-0.2l0.8,0.2l0-0.1c0.2,0.2,0.2,0.5,0.6,0.4
		c0.2-0.1,0.1,0.1,0.2,0c0.3-0.1,0.6,0.3,0.8,0.1c0.2,0.3,0.6,0,0.8,0.4l0.6,0.2v0v0c0.4-0.2,0.4,0.4,0.8,0.3
		c0.1,0.3,0.6,0.2,0.6,0.5l0.6,0.1l0,0c0.2,0,0,0.1,0.4,0.2l0.1-0.1c0.1,0.2,0.4,0.1,0.6,0.1c0.2-0.3,0.6,0.2,0.7-0.2
		c0.1,0.2,0.2,0,0.3,0.2l0-0.1l0,0.1c0.2-0.2,0.3,0.1,0.4,0.1c0.1,0.2,0.2,0.2,0.4,0.3c0.1,0.1,0.1-0.1,0.2-0.2l-0.1,0.1
		c0.3,0.2,0.5,0.1,0.9,0.1l0.8,0.1l0-0.1l0.4,0.2c0,0,0-0.1,0-0.1c0.1,0.1,0.3,0,0.4-0.2c0.2,0.4,0.4,0.5,0.9,0.5l0.1-0.1l0,0.1
		c0.3,0,0.5,0.5,0.8,0.4c0,0.2,0.2,0.1,0.2,0.2h0.2c0.5,0,0.7,0.6,1.2,0.3l0-0.1l0,0l0,0.1c0.2,0.1,0.3-0.1,0.6-0.1l0,0
		c0.2-0.2,0.4,0.2,0.6-0.1c0,0.1,0.1,0.1,0.1,0.1l0.1-0.1c0,0.3,0.2,0,0.3,0.1c0-0.1-0.1,0.2,0.1,0.2c0.2,0,0.3,0,0.4,0
		c0.1,0.2,0.4,0,0.5-0.1l0,0.1c0.4-0.2,0.7,0.4,1,0.2l0,0.1c0.1,0,0.2,0,0.2,0.1c0,0.1-0.1,0.7-0.1,0.8c0,0-0.1,0-0.1,0
		c0.1,0.1,0,0,0,0.2l0.1,0.1c-0.1,0-0.1,0.1-0.1,0.2c-0.1,0.1-0.1,0.4-0.2,0.8c-0.2,0,0,0.2-0.1,0.3l0.1,0c-0.3,0.1,0,0.6-0.1,0.9
		c0,0-0.1,0-0.1,0c0.2,0.2-0.2,0.3,0.1,0.5l0,0c0.1,0.4-0.7,0.2-0.5,0.8l-0.1-0.1l-0.3,0.5c0,0,0,0-0.1,0c-0.1,0.2,0,0.3-0.1,0.5
		l-0.1,0c0,0.2-0.1,0.5-0.2,0.7c-0.3,0-0.1,0.8-0.6,0.9c-0.3,0.2-0.4,0.4-0.7,0.7l0,0l0.1,0.1l0,0l0-0.1c-0.3,0.4-0.3,1.2-0.9,1.3
		c-0.1,0.1-0.3,0.3-0.3,0.5l0,0c-0.1,0.3-0.7,0.5-0.5,0.9l0-0.1c-0.2,0.2-0.3,0.1-0.4,0.4c-0.1-0.1-0.3,0-0.4-0.1
		c0,0.1-0.1,0.1-0.1,0.1c0.2-0.1-0.1-0.2-0.1-0.2c0,0,0.1,0,0.1,0c-0.1-0.5-0.6-0.9-0.7-1.4c-0.1,0-0.1-0.2-0.2-0.3
		c-0.1,0-0.1-0.2-0.3-0.2l0,0.1c-0.5-0.3-1.1-0.7-1.2-0.7c-0.1,0-0.2,0-0.3,0.1l0.2-0.1c-0.1-0.1-0.4-0.8-0.9-0.6l0.1-0.2
		c0,0-0.1,0-0.1,0c-0.1-0.1,0-0.3-0.1-0.3l0,0c0-0.2-0.1-0.5-0.2-0.6l-0.1,0c0-0.1-0.1-0.1-0.1-0.1c-0.1,0.1,0,0-0.1,0
		c-0.1,0-0.1-0.4-0.4-0.6c-0.3-0.2-0.7-0.7-0.8-1L13,20.9c0.1-0.3,0-0.6-0.1-0.8c-0.1-0.2-0.3-0.4-0.4-0.5c-0.2,0.1-0.1-0.1-0.3-0.2
		c-0.6-0.6-1.4-1.3-2-2c-0.2-0.3-0.7-0.3-0.7-0.8c-0.6-0.4-0.8-1-1.4-1.4c-0.5-0.4-0.2-0.9-0.8-1.3l-0.2-0.1c-0.1-0.1,0.1,0.1,0.1,0
		L7,13.6c0.1,0,0-0.1,0.1-0.1c-0.7,0-0.6-0.9-1.4-0.8c-0.1-0.4-0.3-0.3-0.5-0.5C5.4,12.3,5.4,12.2,5.5,12.2"/>
	<path fill="#F7971D" d="M59.8,1.8c0.2,0.2-0.3,0.4,0,0.7c0.2,0.1-0.1,0.2,0.1,0.2l0,0l-0.1,0.2l0.1,0.1l-0.1,0.2
		c0.1,0.1,0.1,0.3,0.3,0.4c0.1,0.1,0,0.5,0.1,0.6l-0.1,0l0,0.2l0,0c0,0.2-0.2,0.3,0,0.4l0,0.1c0,0.1-0.1-0.1-0.1,0L59.8,5L60,5.1
		l-0.1,0.2l0.1,0C59.8,5.4,60,5.5,60,5.6l0.2-0.1L60,5.6l0.1,0.2c-0.1,0-0.1,0-0.2,0L59.9,6L60.1,6l0-0.1L60,6.2
		c0-0.1,0.1-0.1,0.1-0.1c-0.1,0-0.2,0.1-0.2,0.3c0,0,0.1,0,0.1,0c0.1-0.1-0.1,0.1,0,0.1c0.1,0.2-0.4,0.5,0,0.7
		c-0.2-0.1-0.1,0.2-0.2,0.1c0.1,0.1,0,0.1-0.1,0.2l0.1,0.4c0,0,0,0.1-0.1,0.1l0.1,0.1l-0.1,0c-0.2,0.2,0,0.2,0,0.3
		c-0.1,0.1-0.2,0.1-0.2,0.3l0.1,0.1l-0.2,0c0,0.1-0.1,0.4,0.1,0.5l-0.1,0c0.1,0.4-0.3,0.6-0.3,0.9l0.1,0c-0.2,0.2-0.1,0.5-0.2,0.8
		c-0.1,0.3-0.4,0.4-0.3,0.7c-0.4,0.5-0.7,1.5-0.8,2.1l-0.1,0c0,0.1,0,0.2,0,0.3c-0.2,0.2-0.3,0.6-0.3,0.8c-0.2,0,0,0.1-0.2,0.3
		c-0.1,0.1-0.1,0.3,0,0.4c0,0,0-0.1-0.1-0.1c0.1,0.4-0.4,0.6-0.5,0.8c-0.1,0-0.2,0.1-0.2,0.2l0,0.1l0,0c-0.1,0.1-0.2,0.4-0.4,0.6
		l-0.1,0c0,0,0,0.1,0,0.1l-0.1,0c0,0.1,0,0.1,0,0.2l-0.1-0.1l0-0.1c-0.3-0.1,0,0.1-0.3,0c0.1,0.5-0.4-0.1-0.6,0.1l0.1-0.1
		c-0.1-0.1-0.1-0.5-0.4-0.3c0-0.2-0.2-0.3-0.5-0.3l-0.1,0l0-0.1c-0.3-0.3-0.6,0.1-0.9-0.2c-0.1,0-0.3,0.1-0.4,0l-0.1-0.2l-0.3,0.1
		l-0.2,0.1c0,0.1,0.2-0.1,0.2-0.2c-0.1-0.1-0.2,0-0.4-0.1l0,0.1c-0.1-0.3-0.5-0.1-0.8-0.4c-0.1,0.1-0.4,0-0.5,0.2c0,0,0-0.1-0.1-0.1
		c-0.1,0.1,0,0.2,0,0.3c-0.1-0.2-0.2-0.6-0.4-0.5c-0.3-0.3-0.2,0.2-0.7,0.1l0-0.1c-0.2,0-0.4,0.3-0.5,0.4c0-0.1,0.1-0.2,0-0.3
		c-0.1-0.1-0.1,0.1-0.1,0.2c0.3-0.5-0.3-0.6-0.7-0.9c0,0,0,0,0.1,0.1c0.1-0.1,0-0.1,0-0.2c0,0-0.1,0-0.1,0c-0.1-0.1-0.2-0.4-0.3-0.5
		l0,0l0-0.3l-0.1,0l0-0.1c-0.1,0.1-0.1-0.2-0.4-0.2c0-0.3-0.6-0.3-0.7-0.7l-0.1,0c0.1,0,0.1-0.1,0.1-0.1c-0.2,0,0.1-0.4-0.2-0.4
		c0-0.1,0-0.3-0.1-0.2c0.1,0,0.1-0.1,0.1-0.2L46.4,12l0,0c-0.3,0,0.1-0.3-0.3-0.4c-0.3-0.2,0.4-0.3,0.1-0.5c0,0.1,0.1,0.1,0.1,0.1
		c0.2-0.2,0.2-0.1,0.4-0.3c0,0,0.1,0,0.1,0c0.1-0.1-0.1-0.2-0.1-0.2c0.3,0,0.3-0.3,0.6-0.4l0-0.1c0.1,0,0.1,0,0.2-0.1
		c0.2,0,0.1-0.1,0.2-0.3c-0.1,0-0.1-0.1-0.2-0.1c0.1,0.1,0.2,0.1,0.3,0c0,0,0.1-0.1,0-0.1c-0.1,0,0.1,0,0.2,0
		c0.1-0.1,0.1-0.2,0.2-0.3c0,0,0.2-0.1,0.2-0.2l-0.1-0.1l0.3,0.1c0-0.3,0.5,0,0.4-0.4c0.1,0,0.3-0.1,0.4-0.3c-0.1-0.1,0,0.1,0.1,0
		c0.4,0,0.6-0.1,1-0.3c0.2,0,0.2,0,0.4-0.3C50.9,8.3,51.1,8,51.1,8c0.1-0.2,0-0.2,0-0.4l0,0.1c0,0,0.6-0.1,0.5-0.5
		C51.8,7.1,52,6.8,52,6.6l0.1,0c0-0.2,0.5-0.4,0.6-0.5c0.2,0.1,0.3-0.2,0.4-0.3l0-0.1c0.2,0,0-0.2,0.2-0.2c0.1,0.2,0.4-0.1,0.6,0
		c0.2-0.2,0.5,0.1,0.5-0.3c-0.1,0.2,0.3,0.1,0.4,0l0-0.1l0.1,0c0.2-0.1,0.6-0.4,0.7-0.4c0.1-0.1,0.5-0.2,0.7-0.5
		c0.4,0,0.4-0.5,0.8-0.6c0-0.2,0.3,0,0.3-0.2l0,0c0.4-0.2,0.5-0.6,0.8-0.8c0.1,0,0.1-0.1,0.1-0.2l0,0.1c0.4-0.1,0.3-0.5,0.7-0.6
		L59,2c0.1,0,0.2,0,0.2-0.2C59.4,1.9,59.5,1.7,59.8,1.8"/>
	<path fill="#F7971D" d="M6.7,34.2L6.7,34.2c0,0,0.2,0.1,0.3,0c0.2-0.1,0.5,0.2,0.7-0.2l0.1,0c0-0.4,0.2-0.1,0.4-0.3l0,0.1
		c0.4,0,0.2-0.3,0.6-0.2c0,0.1,0.1,0,0.3,0c0-0.1,0-0.1,0.1-0.1c0,0.1,0.1,0.1,0.2,0.1c0.2,0,0-0.2,0.1-0.3l0,0l0-0.1l0,0l0,0.1
		l0.1-0.1l0,0.1c0.1-0.2,0.4,0,0.2-0.2c0.1,0.1,0.4,0.2,0.5,0l0,0c0.4-0.1,0.5,0,0.9-0.2c0.1,0,0,0.2,0.1,0.1l0.1,0c0,0,0-0.1,0-0.1
		c0,0,0.5-0.3,0.5-0.1c0.2-0.2,0.6-0.3,0.9-0.2c0.1-0.2,0.1,0.2,0.3,0.1c0.1-0.2,0.1,0.1,0.2-0.1l0.1-0.2c0,0,0,0.1,0,0.1l0.1-0.1
		l0,0c0.1,0.1,0.2,0,0.3,0l0-0.1l0.1,0c0.1-0.1-0.1-0.2,0-0.3l0.1,0.1c0-0.1,0.2-0.2,0.2-0.1c0.3,0.1,0.8-0.2,1.3-0.4
		c0.2-0.2,0.1-0.3,0.2-0.3c0.3-0.1,0.8-0.4,1.1-0.5c-0.1-0.2,0.2,0,0.2-0.1c0.6-0.1,0.5,0.6,1,0.7c-0.1,0-0.3,0.4,0,0.5
		c0,0.3-0.3,0.6,0,1c0,0-0.1,0.2,0.1,0.2l0,0l0,0.1c0,0,0,0.1-0.1,0.1c0,0,0,0.1,0.1,0.1l0.1,0l-0.1,0.2l0.1,0L18,33.9l0.2,0.1
		l-0.1,0.1l0.1,0.1l-0.1,0c0.1,0,0,0.2,0.1,0.2l0,0.1c0.2,0.1-0.1,0.4-0.1,0.6c-0.2,0.1,0.1,0.2,0.1,0.2c-0.2,0.1,0,0.3-0.1,0.5
		l0.2,0c-0.1,0.1-0.1,0.2-0.2,0.3l0.1,0c-0.2-0.1-0.3,0.2-0.2,0.3c0.2,0.1,0.1,0.2,0.3,0.2l-0.1,0c0.1,0.2-0.2,0.5,0,0.6
		c-0.1,0-0.1,0.1-0.1,0.1c0,0,0.1,0,0.1,0c-0.2,0-0.1,0.2-0.2,0.3l0,0.1l-0.1,0l0,0.1c-0.2,0-0.1,0.2-0.2,0.3l0.1,0
		c-0.1,0-0.1,0.2,0,0.3l-0.1,0c-0.2,0.6,0,1.3-0.3,1.8c0.1,0.1-0.1,0.2,0.1,0.2c0,0,0,0.1,0,0.1l-0.1,0c0,0.7-0.4,0.4-0.6,1
		l-0.1-0.1c0.1,0,0.1-0.1,0.1-0.1c0-0.1-0.1,0-0.2-0.1c0,0,0,0.1,0,0.1c-0.1-0.1-0.1-0.3-0.2-0.2c0,0.3-0.1-0.2-0.3,0
		c-0.1,0.1-0.4,0-0.5,0.2l0,0.1c-0.1,0-0.1-0.1-0.2-0.1c0,0,0,0.1,0,0.1c-0.1,0-0.1-0.2-0.2,0.1c-0.2-0.3-0.4,0.3-0.7,0.1l-0.1,0.2
		l0-0.1c-0.1,0-0.1,0-0.2,0c0,0,0,0.1,0,0.1c0-0.1-0.1-0.1-0.1-0.1l0-0.2c-0.4-0.2-0.6-0.1-0.9-0.3l-0.2,0l0,0.1
		c-0.1-0.1-0.3-0.2-0.5-0.1c-0.1-0.3-0.2,0.1-0.4,0c-0.1-0.1,0.1-0.2-0.1-0.2c-0.1,0.1-0.1,0.1-0.2,0.2c0-0.1-0.1-0.1-0.1-0.2
		c-0.1,0.1-0.3-0.3-0.3,0c0.1-0.2-0.2-0.2-0.5-0.3c-0.2,0.3-0.8-0.1-0.8,0.3c-0.1-0.1-0.3,0-0.4,0.1l0.1,0.2c-0.1-0.1,0-0.4-0.2-0.3
		c-0.1,0.2,0-0.1-0.1-0.1l-0.1,0.1C9.6,41,9.4,41,9.4,40.9l-0.1,0.1c-0.1-0.2,0-0.4-0.3-0.3l0,0c-0.1-0.1-0.6,0-0.7,0
		c0,0,0-0.1,0-0.1l-0.1,0c0.1-0.2-0.3-0.1-0.4-0.2l0,0.1c-0.1,0,0-0.2-0.1-0.2c-0.1-0.1-0.5,0.2-0.7,0c-0.1,0-0.1,0.1-0.1,0.1
		c-0.3-0.1-0.3-0.1-0.6-0.3l-0.1,0c0,0.2-0.1,0-0.2,0.1C6,40.1,5.6,40,5.4,40l0-0.1c-0.3-0.1-0.4,0-0.7-0.1c-0.1-0.1-0.2,0-0.4,0
		l0,0c0,0-0.1-0.2-0.2-0.1c-0.1,0-0.1,0.1-0.2,0c0-0.1-0.1,0-0.2,0c0,0.1,0,0.1,0.1,0.2c0-0.2-0.2-0.3-0.4-0.2
		c-0.1,0.1-0.1,0.2,0,0.3c-0.1-0.3-0.4-0.1-0.5-0.3l0,0.1c0,0,0-0.1-0.1-0.1l-0.1,0c0,0,0,0,0-0.1l-0.2,0.1l0.1-0.1
		c0-0.2-0.2-0.1-0.3-0.2l-0.3,0.2c0,0,0.2-0.1,0.2-0.2c-0.3-0.2-0.4-0.1-0.7-0.2l0,0c-0.3,0-0.5-0.4-0.7-0.3c0-0.1-0.1-0.1-0.1-0.2
		l-0.1,0c-0.1-0.1-0.1-0.2-0.3-0.2l0.1,0c-0.2,0-0.2-0.3-0.3-0.3c0-0.1,0-0.4-0.1-0.5c0.1-0.1,0.2-0.2,0.1-0.3
		c0.1-0.1,0.4-0.4,0.6-0.5c0-0.1,0.1-0.2,0-0.2l0,0l0.2-0.1c0,0,0,0,0,0.1c0.4,0,0.6-0.1,0.8-0.4c0.1,0,0.2,0,0.2-0.1
		c0.1,0.1,0.2,0.3,0.3,0.2c0.1-0.2,0.3-0.2,0.4-0.3l0,0.1c0.2,0.1,0.2-0.1,0.3-0.1c0.1-0.1,0-0.3-0.2-0.3c0.2,0.1,0.1,0,0.3,0.1
		l0-0.1C2.9,36,3,36,3.1,36.1c-0.1-0.3,0.7,0.2,0.6-0.3c0,0,0,0.1,0,0.1c0,0,0.1,0,0.1,0c0.1-0.2-0.1-0.1,0-0.3
		c0.1,0,0.1,0.2,0.2,0.1c0.1-0.3,0.3,0.1,0.5-0.1l0.1,0c0-0.1,0.1-0.3,0-0.3l0,0c0.1-0.1,0.3-0.1,0.4-0.1c0-0.2,0.1,0,0.2-0.1
		c0.2-0.2,0.3-0.1,0.5-0.4c0.1,0.1,0.2,0.1,0.3,0.1c0.1-0.2,0.2,0,0.2-0.1c0.2,0,0.3-0.1,0.4-0.3c0.2,0,0.1-0.3,0.2-0.4
		C6.6,34.2,6.5,34.3,6.7,34.2"/>
	<path fill="#F7971D" d="M20,43.6L20,43.6c0.4,0.1,0.9,0.2,1.1,0.6l-0.1,0l0.4,1.4c0.2,0,0.2-0.3,0.3-0.4c-0.1,0.3-0.3,0.6-0.2,0.8
		l0,0c-0.1,0,0.2,0.2,0,0.4c0.1,0.4,0.5,0.5,0.5,0.9c0.1,0.2,0.1,0.5,0.3,0.5c-0.1,0.1,0,0.1,0,0.1c0.3-0.1,0.1,0.3,0.4,0.2
		c0,0.1,0,0.1,0,0.1l0.1-0.1c0.1,0.2,0.4,0.6,0.3,0.9c0.2-0.1-0.1,0.5,0.3,0.3l-0.1,0.2c0.2-0.3,0.1,0.3,0.4,0.1
		c-0.1,0.1,0.1,0.5,0.2,0.7l0,0c0.2,0.1,0.2,0.4,0.5,0.5c0,0,0,0-0.1,0c0.1,0.3,0.2,0.5,0.3,0.8c0.2-0.1,0.3,0.2,0.6,0l-0.3,0.1
		c0.2,0,0.4,0.3,0.8,0.4l0,0c0,0.5,0.8,0.5,0.8,1l0.1,0.2l-0.1,0c0.2,0.2-0.1,0.1,0,0.3l0.1,0c-0.1,0-0.1,0.1-0.1,0.1
		c-0.2-0.2-0.2,0.2-0.3,0.2c0,0,0,0.1,0,0.1c0.1,0-0.2-0.1-0.1,0.1c-0.2,0.1-0.3,0.3-0.5,0.5l0.1,0.1c0-0.1-0.1,0-0.1-0.1l-0.2,0.4
		l0-0.1c-0.2-0.1-0.2,0.3-0.4,0.3l0,0l0,0.1l0,0l0,0c-0.2,0.1-0.4,0.6-0.7,0.5l0,0l0-0.1c-0.3-0.1-0.3,0.3-0.6,0.5c0,0,0,0,0.1-0.1
		c-0.4-0.2-0.7,0.4-1,0.2l-0.2,0c-0.1,0.1-0.4-0.1-0.4,0.1c-0.1-0.1-0.2,0.1-0.3,0.1l0,0.1c-0.2-0.2-0.4,0.1-0.6,0.1
		c-0.1,0.4-0.7,0.1-0.6,0.6l0-0.1c-0.3-0.1-0.3,0.1-0.5,0.2c-0.1-0.2-0.4,0.2-0.5,0c-0.3,0.1-0.5,0.1-0.9,0.2l-0.2-0.1l0,0.2l0-0.1
		l-0.1,0l0,0c0,0-0.1-0.1-0.1,0l0,0.1c-0.1-0.1-0.7-0.2-0.8,0.1c0,0.1-0.1,0.1-0.1,0.1c0,0,0,0,0.1-0.1l0,0l-0.3,0.2l0-0.1
		c-0.1-0.1-0.3-0.1-0.4,0c0-0.1-0.1-0.1-0.1-0.1l-0.1,0.1l0-0.1c-0.4,0.1-0.4,0-0.8,0.1c-0.2,0.1-0.3,0.3-0.4,0.4l-0.3-0.1
		C15.1,58,15,58,15,58c0,0,0,0,0.1-0.1c-0.1,0-0.2,0-0.3,0.1l0.1,0.2c-0.1,0-0.2-0.2-0.3-0.1l0,0.1c0,0.1,0-0.1-0.1-0.1l0,0
		c0.1,0.1-0.3-0.1-0.1,0.2c0-0.1-0.3-0.1-0.3,0c-0.3-0.2-0.4,0.2-0.7,0c-0.1,0.3-0.3,0-0.5,0.2c0,0.1-0.1-0.2-0.2,0l0,0.1
		c0-0.2-0.3,0-0.4-0.1c-0.2,0.2-0.3,0-0.5,0.3c0.1,0.1-0.1-0.2-0.2,0l-0.1,0.1c-0.1-0.1-0.1-0.4-0.3-0.3l0,0
		c-0.1,0.1,0.1-0.2-0.1-0.1c0,0-0.1-0.2-0.2-0.3l0,0.1c0-0.2-0.2-0.2-0.2-0.3l-0.1,0.1l0-0.1l-0.2,0c0.1-0.1,0.1-0.2,0.1-0.4l-0.1,0
		c0.2-0.2,0-0.2,0-0.4l-0.1,0l0,0c-0.3,0,0.1-0.1-0.1-0.3c0.1-0.1,0.3-0.3,0.2-0.5l-0.1-0.1c0.1,0,0.1,0,0.1-0.1c0,0-0.1,0-0.2,0
		c0.2-0.2,0.2-0.2,0.4-0.3c0-0.3,0.9-0.5,0.7-0.9l0.1-0.1l0,0c0.1,0.1,0.2-0.1,0.2-0.1l0,0l-0.1,0c0.3,0,0.3-0.3,0.5-0.4
		c0-0.1,0-0.1,0.1-0.2c0.1,0,0.1,0,0.3-0.1l0-0.2c0,0,0,0,0,0.1c0.1,0,0.1,0,0.2,0L12.5,54c0.1-0.1,0.1,0,0.2,0
		c0-0.2,0.4-0.3,0.6-0.5c0.1,0,0.4-0.1,0.2-0.3l0,0l0-0.1l0,0c0,0,0,0,0.1,0c0.1,0,0-0.1,0.1-0.1l0.1-0.3l-0.1-0.1
		c0,0.1,0.1,0,0.1,0l0-0.1l-0.2,0c0.4,0.2,0.5-0.5,0.8-0.7l0,0c-0.2-0.1,0.2,0,0.1-0.2l0.1-0.2l-0.1,0l0.2,0.1
		c0.1-0.1-0.1-0.2-0.1-0.3l0.1-0.2c-0.1,0-0.2-0.1-0.2-0.2c0.1-0.1,0.3-0.1,0.4-0.1l0-0.1l-0.2-0.1c0.1,0,0.4-0.1,0.5-0.2l0-0.3
		c0.1-0.1,0,0,0,0.1c0.2-0.1,0.5-0.4,0.5-0.6c-0.3-0.2,0.2-0.2,0.2-0.4l0.5-1l-0.1,0c0.3-0.6,0.4-1,0.8-1.8l0,0c0-0.8,0.9-1,1.2-1.6
		c0,0,0,0.1,0,0.1c0.4-0.4,0.8-0.4,1.1-0.9C19.7,43.9,20,43.9,20,43.6"/>
	<path fill="#F7971D" d="M65.7,31.2L65.7,31.2c0.2,0,0.2,0,0.6,0.1l0-0.1c0.2,0.3,0.6,0.2,1,0.4c0.1,0,0.3-0.2,0.4-0.1
		c-0.1,0.1,0.2,0.2,0.3,0.2c0,0.2,0.2,0.1,0.3,0.3c0.1-0.1,0.2,0.1,0.3-0.1l0.2,0.1l0-0.1c0.5,0.1,1-0.1,1.5,0l0,0c0,0,0.1,0,0.1,0
		c0.1-0.1,0.2,0.5,0.3,0.2c-0.1,0.3,0.3,0.4,0.5,0.4l-0.1,0l0,0.1c0.4-0.1,0.4,0.5,0.7,0.3l-0.1,0c0.1,0.2,0.2,0.2,0.2,0.4
		c0.4,0,0.5,0.5,0.8,0.3l-0.1,0c0.1,0.1,0.2,0,0.4,0.1l0,0.1c0.2,0.1,0.9,0.1,0.9,0.6c0.2,0.1,0.4,0.2,0.6,0.2
		c0.2,0.1,0.2,0.3,0.4,0.2L75,35.2c0.1,0.1,0.3-0.1,0.4,0.1c-0.1,0.1,0.1,0.2,0.2,0.2l0.3-0.3c0,0.3-0.6,0.4-0.2,0.7l0.1,0l0,0.1
		l0.1,0.1c-0.1-0.1,0.2,0,0.2,0l-0.2,0.1c0.1,0,0.3,0.1,0.4,0c0,0,0.3,0.1,0.4,0l-0.1,0.3c0.2,0,0.3,0,0.4,0l0,0.1
		c0.1-0.1,0.4,0.4,0.5,0l0.1-0.1c0,0-0.1,0-0.1,0.1c0.4,0.3,1.7,0.6,1.6,1.3l0.3,0c0,0.3,0.2,0.1,0.3,0.5c0.3,0-0.1,0.2,0.2,0.2
		c0,0.2,0.5,0.1,0.5,0.4c0.2,0,0.2,0,0.3-0.1c0,0,0,0,0,0.1c0.2,0,0.4,0.2,0.6,0.1c0.1,0.2,0.1,0.3,0.2,0.5l0.1,0c0,0-0.1,0-0.2,0.1
		l0.1,0c-0.1-0.1,0,0.1-0.2,0.1c0.2,0.1,0.3,0.2,0.3,0.5c0.1,0.1-0.2,0.2,0,0.4c-0.3-0.2-0.3,0.5-0.7,0.1c-0.2-0.1-0.4-0.2-0.8-0.1
		l0-0.1c-0.1-0.1-0.1,0.1-0.2,0.1c-0.4-0.1-0.7-0.2-1.1-0.1c-0.1,0-0.2-0.1-0.4-0.1c0,0.1-0.1,0.1-0.2,0.1c-0.1,0-0.4,0.1-0.5,0.3
		l0,0.1c-0.1-0.2-0.6-0.2-0.9-0.2L76.6,41l0,0c-0.2,0.1-0.2,0.1-0.4,0.1c-0.5-0.1-1.2-0.1-1.6,0.1c-0.2-0.1-0.4-0.2-0.5-0.1
		c-0.1-0.1-0.3-0.1-0.5-0.1l0,0.1c0-0.1,0-0.2-0.2-0.2c-0.1,0.1-0.2,0.3-0.4,0.2l0,0.1c-0.1-0.1-0.2,0-0.3,0c-0.1,0-0.3-0.1-0.4-0.1
		l0,0.1l0-0.1L71.8,41l0,0.1c-0.2-0.2-0.4-0.2-0.6,0l-0.1,0L71,41.1l0,0c-0.2-0.1-0.4,0-0.7,0.1l0,0c-0.1,0.4-0.4-0.1-0.6,0.3
		c-0.1-0.2-0.3,0.2-0.3,0.1c0,0,0,0-0.1-0.1l0,0.1c-0.2,0-0.1-0.3-0.4-0.3c-0.4,0.1-0.5-0.1-0.8-0.3L68,41.2l0,0
		c-0.3,0.1-0.8,0.1-1.3,0.1c0,0.4-0.3-0.1-0.4,0.2c-0.2-0.1-0.4,0.3-0.5,0.3l0,0.1c-0.2-0.2-0.6-0.2-0.8-0.1
		c0.1-0.2,0.1-0.1,0.3-0.2c-0.4-0.1-0.6-0.3-0.9-0.4l0,0c-0.2,0.1-0.2-0.3-0.2-0.4c0.2-0.1-0.1-0.5,0.2-0.6L64.3,40
		c0.1,0,0.1-0.1,0.1-0.1c-0.1-0.1,0-0.1,0-0.2l-0.1,0c0.2-0.3-0.2-0.1,0-0.4c-0.2-0.3-0.5-0.5-0.1-0.8c0.1-0.1-0.2-0.3-0.2-0.5
		l0.1,0.1c0.1,0,0.1-0.2,0.1-0.3l-0.1,0c0.3-0.4-0.1-1.2,0.4-1.7l-0.1,0c0.5-0.3,0.1-1.1,0.5-1.6c-0.1-0.5-0.3-1.1-0.3-1.5
		c-0.1-0.2,0.1-0.5-0.1-0.7c0.2-0.2,0.2-0.6,0.2-1c0.3-0.1,0.4-0.3,0.7-0.3c0.1-0.1,0.1-0.3,0-0.5C65.4,30.9,65.3,31.3,65.7,31.2"/>
	<path fill="#F7971D" d="M45,57.2c0.1-0.1,0.4,0.1,0.6,0c0.5-0.3,0.8-0.2,1.3-0.2l0-0.1c0.5,0.2,1-0.1,1.3,0.2
		c0.1-0.2,0.3,0.1,0.4-0.1c0.1,0.1,0.5,0.1,0.7,0.1l0-0.1c0,0,0,0.1,0.1,0.1c0,0,0,0,0.1-0.1l0-0.1c0.2,0,0,0.2,0.3,0.2
		c-0.1-0.3,0-0.1,0.1-0.2l-0.1,0l0,0.1c0.1,0.1,0.3,0.2,0.4,0.1c0.1-0.1,0-0.1,0-0.2c0.1,0.2,0.1,0,0.3,0.1c0.1-0.2,0.3-0.2,0.4-0.4
		l0,0.1c0.3,0,0.4-0.5,0.7-0.3c0.3,0,0.6-0.3,0.9-0.4l0,0c0.2-0.4,0.7,0,1-0.4c-0.1,0.1,0.1,0.1,0.1,0.1c0.3-0.3,0.8-0.1,1,0
		c0,0.1,0.1,0.1,0.1,0.1h0l0.1,0.2c0,0.2,0,0.5,0.2,0.8l0.2,0.2c-0.3-0.1-0.2,0.2-0.3,0.3c0,0.2,0,0.2,0.1,0.3
		c-0.1,0.1,0.1,0.4,0.1,0.6c0,0.3-0.2,0.7-0.1,1.2l-0.1,0.3c0,0.1,0,0.3,0.1,0.3L54.7,60c0,0.4,0,0.2,0,0.6
		c-0.1,0.3,0.2,0.7,0.1,1.1c-0.3-0.1-0.1,0.4-0.4,0.2c0,0.6-0.6,0.8-0.3,1.4c-0.2,0.3,0.2,0.5,0,0.7c0.1,0,0,0.2,0.1,0.3l-0.1-0.1
		c-0.1,0.2,0,0.3-0.1,0.5c0.2,0.1,0,0.1,0.1,0.3c-0.1,0.1-0.2,0.2-0.2,0.3c0.2,0.3,0,0.8,0.3,1c0,0.5,0,0.7,0.2,1.1
		c-0.2,0.2-0.3,0.7-0.2,0.9c-0.1,0.2,0.1,0.7,0.1,1c0,0,0-0.1-0.1-0.1c-0.1,0.1-0.1,0.4,0,0.5l0,0c-0.1,0-0.1,0.1-0.1,0.2l0,0.1
		c-0.2,0.2-0.5-0.2-0.5,0.2c0,0,0,0-0.1,0c-0.1,0.1,0,0.1,0,0.1c-0.1,0.1-0.4-0.2-0.5-0.1c0,0.2,0-0.3-0.1-0.1
		c0-0.2-0.1-0.4-0.2-0.6c-0.2-0.3-0.3-0.7-0.6-1l-0.2,0l0.1,0c-0.1-0.3-0.4,0-0.4-0.2l0,0c-0.3-0.3-0.7-0.2-0.8-0.8
		c-0.1,0-0.2-0.1-0.3,0c0,0,0-0.1,0-0.1l-0.1,0.1c0.2-0.5-0.4-0.5-0.3-0.8c-0.3-0.1-0.5-0.4-0.6-0.6h-0.2c-0.1-0.1-0.2-0.4-0.3-0.6
		l-0.1,0L48.7,65l-0.2,0.2l0.1-0.2c-0.1,0-0.1-0.3-0.2-0.3c0-0.1-0.1-0.4-0.2-0.3l0.1,0c0-0.3-0.4-0.4-0.3-0.7
		c0.1,0-0.1-0.1,0.1-0.2c-0.1,0-0.2-0.1-0.2-0.3l0.1,0c0-0.2,0-0.3-0.1-0.5c-0.1,0-0.2,0-0.2,0.1l0-0.2l-0.2,0c0,0,0.1,0,0.1,0
		c-0.1-0.1-0.2-0.4-0.4-0.6c-0.1-0.3-0.6-0.4-0.6-0.7l-0.3-0.1c0.2,0.1,0-0.3-0.1-0.3c-0.2,0,0.1-0.3-0.2-0.4c0-0.4-0.6-0.4-0.6-0.8
		c-0.1-0.2-0.2-0.4-0.4-0.6c-0.1-0.3-0.4-0.5-0.3-0.6l-0.1,0c0-0.1,0.1-0.3,0-0.4l0.1-0.1l-0.1-0.1c0.1,0.1,0-0.1,0.1,0
		c-0.1-0.3,0.2-0.4,0.3-0.8L45,57.2z"/>
	<path fill="#FFD456" d="M33.3,0.4c0,0.3,0.5,0.4,0.3,0.7c0.1,0.2,0.6,0.3,0.6,0.6c0.4-0.1,0.3,0.5,0.6,0.6c0,0.1,0,0.1,0,0.2
		c0-0.2,0.1,0.1,0.1,0c0,0,0,0.1,0.1,0.1l0-0.1C35,2.7,35.1,3,35.2,3.1l0.3,0c-0.1,0-0.1,0.1-0.1,0.1l0.1,0l0,0.4l0.1,0
		c-0.1,0.1,0.1,0.2,0,0.1l-0.1,0.1c0.1,0.3,0.4,0.2,0.5,0.5h0.1c0,0.1,0,0.4,0.1,0.5l0.1,0c0,0.1-0.1,0.1,0,0.2l0.1,0
		c-0.1,0.1-0.1,0.2-0.1,0.3c0.2,0.4,0.6,0.5,0.7,0.9l0.2,0c0.1,0-0.1,0.3,0.1,0.2l-0.1,0.1l0.1,0c-0.1,0.1-0.1,0.2,0,0.3
		c0.1,0,0.1,0.1,0.2,0c0,0.3,0.5,0.4,0.6,0.7c0.2-0.1,0.1,0.3,0.3,0.3c-0.1,0.4,0.5,0.2,0.3,0.5l0.3,0.1c0,0-0.1,0-0.1,0l0,0.1
		l0.2,0.1l0,0c0.1,0.4,0.9,0.5,0.7,1c-0.1,0.1,0.1,0.2,0.1,0.3l0.1,0c0,0.1,0,0.6,0,0.8c0.1,0.1,0.1,0.2,0.2,0.2l0,0
		c0,0,0,0.1,0,0.1l0.1,0l0-0.1c0-0.1,0.1,0.1,0.1,0.1c0,0.2,0.3,0.5,0.5,0.6c0.1,0,0.2,0.2,0.2,0.3c-0.2,0.2,0,0.6-0.3,0.8
		c0-0.1-0.1-0.2-0.2-0.1c0,0,0,0-0.1,0c-0.1,0.1,0.1,0.1,0.1,0.2c-0.1-0.1-0.2-0.1-0.3-0.1c-0.1,0.1-0.2,0-0.2,0.2l0,0
		c-0.1-0.1-0.2,0.1-0.2,0c-0.4-0.1-0.6,0.2-1,0.3c-0.1,0-0.1-0.1-0.1-0.1c0,0.1-0.3,0-0.3,0.2c-0.1-0.2-0.3,0.1-0.4,0l0,0.1
		c-0.4-0.1-0.7,0.4-1.1,0.1c-0.4,0-0.6,0.5-0.9,0.4c-0.3,0-0.6-0.1-0.9,0l0,0.1l-0.1,0c0,0.2-0.7,0-0.5,0.4c0-0.1-0.1-0.1-0.1-0.1
		l-0.1,0.1c-0.1-0.1-0.3-0.1-0.4,0c0,0,0-0.1,0-0.1l-0.1,0l-0.1,0.1c0-0.1-0.2-0.3-0.4-0.3l-0.1,0.1l0,0c-0.3,0.2-0.5-0.1-0.7,0.1
		c0.1,0.1-0.2-0.1-0.3,0l-0.3,0.1l0,0.1c-0.3-0.2-0.3,0.1-0.6,0.1c0,0,0,0,0.1-0.1c0-0.1-0.1-0.1-0.1-0.1l-0.1,0c0,0,0,0,0-0.1
		c0-0.1-0.1,0-0.2,0c0.1,0-0.2,0-0.4,0L31,14.4v0c-0.4-0.1-0.6,0.3-0.9,0.1c0,0,0,0.1,0,0.1c-0.4,0.1-0.4-0.3-0.7-0.2
		c-0.4-0.5-1.3-0.8-1.7-1.4c0.2-0.3,0.6-0.2,0.8-0.4c0.1-0.1-0.1-0.3-0.1-0.2c0.3-0.1,0.5-0.4,0.6-0.6l0-0.1c0.2-0.1,0-0.6,0.3-0.7
		c0-0.3-0.1-0.7-0.3-0.9c0-0.1-0.1-0.1-0.1-0.1c0.1,0,0-0.2,0.1-0.3c0-0.1-0.1-0.2-0.2-0.1l-0.1,0c0.2,0,0.3-0.1,0.2-0.4
		C28.9,9,29.2,8.3,28.9,8L29,7.9l-0.1,0c0.2-0.2,0.2-0.3,0.2-0.6l-0.1-0.1l0.1,0c-0.1-0.3,0.3-0.4,0-0.7l0,0
		c-0.4-0.3,0.3-0.8,0.4-1.2c0-0.1,0.1-0.6-0.1-0.5c0,0,0,0,0.1,0l0,0c0,0.1,0.1-0.1,0.2-0.2c0,0,0,0-0.1,0c0.1,0.1,0.1-0.1,0.1-0.3
		c0-0.1-0.1-0.1-0.2-0.1c0.1,0,0.2-0.2,0.2-0.3c0-0.2-0.2,0,0-0.2c0.3,0,0.1-0.3,0.4-0.5l0.2-0.4l-0.1,0c0.2-0.2,0.3-0.9,0.5-1.4
		c0.2,0.1,0.3-0.7,0.6-0.4c0.1-0.1,0.2-0.1,0.1-0.2c0.5-0.1,0.3-0.3,0.9-0.4l0-0.1C32.8,0,33.2,0.4,33.3,0.4"/>
	<path fill="#FFD456" d="M30.4,17.7c0.3-0.1,0.6-0.1,0.8-0.2c0-0.1,0-0.2-0.1-0.2c0.1,0.1,0.1,0.2,0.1,0.2c0,0.1,0.4,0,0.6,0.1l0,0
		c0,0.1,0.3,0,0.4,0.1c0.2,0,0.6-0.4,0.9-0.6c0.2-0.1,0.9-0.4,0.6-0.6l0.1,0.1c0.2,0,0.3-0.1,0.4-0.2l0-0.1c0.3,0.2,0.5-0.1,0.8-0.2
		l0-0.1l0,0c0.1,0,0.4,0.1,0.3,0l0,0.1c0.2,0,0.5,0.2,0.8,0.1l0-0.2l0,0.2c0.5,0.2,1-0.3,1.5-0.4l0-0.2l0,0l0.1,0c0,0,0,0,0.1,0.1
		c0,0,0.1-0.1,0.1-0.1c0.2,0.1,0.7,0,0.8,0.1c0.2,0,0.4-0.1,0.5-0.2l0,0.1c0.3,0,0.8,0.1,0.9,0l0.1-0.2l0.1,0c0.2-0.1-0.1,0-0.1,0.1
		c0.5,0,0.9-0.2,1.4,0.1l0.1-0.1c0.1,0,0.1,0.4,0.4,0.2l0.1-0.2l-0.1,0.2l0.1,0c0,0,0,0.1,0,0.1l0,0c0-0.4,0.4-0.1,0.4-0.5l-0.4-0.1
		c0.3,0,0.5,0.2,0.8,0.2c0.1,0.1,0.2,0.5,0.5,0.4l0.1-0.1c0.3,0.2,0.7,0.3,1.1,0.4c0.1,0.1,0.1,0,0.2,0c0,0.2,0.2,0,0.3,0.2l0.2,0
		l0-0.1l0.3,0.1l0-0.1c0.5,0,1,0.5,1.6,0.6l0.2-0.2l0,0.1c0.6,0.5,1.9,0.6,2.3,0.9c0,0.3,0.2,0.1,0.4,0.3c0.4,0.3,0.9,0.7,1.5,0.8
		l0-0.1l0,0.1l0.3,0.1l0.1-0.1c0,0.1,0.1,0.2,0.2,0.2l0,0c0.4,0.1,1.3,0.5,1.5,0.4c0.4,0,0.9,0.1,1.1,0.4l0.1-0.1l0,0.1
		c0.3,0.1,0.4,0.2,0.5,0.4l0.1,0l0,0l0.6,0.3L56,20.3l0,0.1l0.2,0l-0.1,0c0.1,0.4,0.7,1,1.1,1.5l0.2,0c0,0-0.1,0-0.1,0l0,0.1
		c0.1,0.1,0.1,0,0.2,0l0,0c-0.1,0.1,0.1,0.1,0.1,0.1l0,0c0-0.1,0,0.1,0.1,0.1l0.3-0.3l-0.1,0.2l0.1,0.1l0.1-0.2
		c0.1,0.3-0.3,0.3-0.1,0.5c-0.1,0.2,0.5,0,0.2,0.3c0.2-0.1,0.3,0.1,0.6,0.2c-0.2-0.1-0.4,0-0.5,0c0,0.1,0.2,0.2,0.2,0.1
		c0,0,0,0.1,0.1,0.1c0,0.4,0.4,0.7,0.6,0.8c0-0.1,0.1,0.2,0.3,0.1c0,0.1,0.3,0.3,0.3,0.3c0.3,0.7,1.1,0.8,0.9,1.6
		c0.2,0.2,0.4,0.6,0.4,0.6c0,0.3,0.4,0.6,0.2,0.8l0.2,0.2l-0.1,0c0.1,0.4,0.4,0.5,0.6,0.7c0.1,0-0.1-0.1-0.1,0
		c0.1,0.4,0.4,0.5,0.6,0.6l-0.1,0c0.3,0.2,0,0.2,0.1,0.5c0.1,0.2,0.4,0.3,0.4,0.5l-0.2-0.1l-0.1,0.3l0.1,0c-0.2,0.3-0.5,0.4-0.5,0.8
		c-0.1,0.1,0.2,0.1,0,0.2c-0.2-0.1-0.1,0.3-0.2,0.4l0.1,0c0-0.1-0.1,0.1,0,0.2l-0.1,0c-0.2,0.1,0.2,0.3,0.1,0.4l0.2,0
		c0,0-0.1,0-0.1,0.1c0.2,0.2,0.1,0.4,0.2,0.5c-0.2-0.1-0.1,0.4,0,0.6c0,0.1,0,0.3,0,0.4c0.1,0,0.1,0,0.1,0c0.1-0.1-0.1,0.1-0.1,0.1
		l0,0.1l0,0c0.2,0.6-0.2,0.6-0.1,1.2l0.2,0c-0.1,0-0.1,0-0.2,0l0,0.1c0,0-0.1,0-0.1,0c0,0.1-0.1,0.1,0,0.2l0.1,0
		c-0.2,0.1,0,0.5-0.2,0.5l0.1,0.1c-0.3,0-0.1,0.3-0.3,0.4c-0.2,0.3,0.1,0.6,0,0.9l0.2,0.3c0,0,0,0,0,0.1c0.1,0.1,0,0.5,0,0.7
		c-0.2,0.2-0.2,0.5-0.2,0.7c-0.1,0.1,0,0.2,0.1,0.3c-0.2,0.1-0.1,0.3,0,0.4c0.1,0-0.1-0.1-0.1-0.1l0.1,0.2c0.1,0-0.2-0.1-0.3,0
		c-0.1,0.1-0.3,0.5-0.2,0.7l0.1,0c-0.2,0.1,0.2,0.3,0.1,0.4c0.1,0.2,0,0.3-0.1,0.5l0,0.1c-0.2-0.1-0.3,0.2-0.4,0.3
		c0,0.3,0,0.3,0,0.5c-0.1,0.2,0.1,0.4,0.1,0.6c0,0-0.1,0-0.1,0l0.1,0.1l-0.1-0.1c-0.2,0.4,0.4,0.8,0.1,1c0.2,0.3,0.3,0.5,0.3,0.8
		h-0.2c0,0.1,0,0.3,0.1,0.4c0,0.1-0.2,0-0.2,0.2c-0.2-0.2-0.2,0.2-0.4,0.2c0,0.1,0,0.1,0.1,0.2c-0.1,0-0.4,0.3-0.4,0.6l0,0l0.1,0.2
		l0,0l-0.1-0.2c-0.3,0.2-0.2,0.5-0.6,0.7c0.1,0.9-0.9,0.8-1.3,1.2c-0.2,0.2-0.7,0.1-0.7,0.6c0,0,0.1-0.1,0-0.1
		c-0.3-0.1-0.1,0.3-0.3,0.4l0,0l-0.1,0c0-0.1-0.2,0.1-0.2,0c0-0.1,0.1-0.2,0-0.2c-0.1,0-0.1,0.1-0.1,0.1l0-0.1
		c-0.1,0-0.2-0.1-0.3-0.1l-0.1,0.2c-0.1-0.3-0.3,0.1-0.4,0l-0.1,0.1l-0.1,0l0,0.1c0,0.1-0.1-0.4-0.3-0.2l0,0.1c0,0,0-0.1,0-0.1
		c-0.5,0.7-1.2,0.3-1.6,1.2c-0.1,0.1-0.1,0-0.2,0c0,0-0.1-0.1-0.2,0.1l-0.1,0c0,0,0-0.1,0-0.1c0,0-0.1,0-0.1,0l0,0.2
		c-0.2-0.1-0.3,0.1-0.4,0.2c0,0-0.1,0-0.1,0c-0.1,0.2-0.6,0.2-0.8,0.6c0.1,0.1,0.2,0.1,0.3,0.1c-0.2-0.1-0.5,0-0.6,0.2
		c-0.2,0.5-0.5,0.5-1,0.7c0,0.1,0,0.2-0.1,0.2c0,0-0.3,0-0.2,0.2c0,0.2-0.1-0.5-0.4-0.2c-0.5,0.2-0.7,0.4-1.1,0.6l0,0.1
		c-0.3-0.3-0.4,0.3-0.7,0.1c0.1,0.1-0.5,0-0.2,0.4l-0.1-0.1l0,0.1c0-0.3-0.5,0-0.6,0.2c-0.3,0.1-0.4,0.3-0.5,0.5
		c-0.3-0.1-0.4-0.1-0.6,0.1l-0.2,0.2c-0.2,0-0.6,0-0.7,0.1c0,0-0.3-0.1-0.4,0.1c-0.4-0.1-0.9,0.1-1.2,0.1c0,0,0-0.1,0-0.1
		c-0.5,0.4-0.9-0.3-1.4,0.2c-0.3,0.1-0.4-0.3-0.6-0.1l0.1,0.1c-0.1-0.2-0.4-0.2-0.6-0.3c-0.2,0.2-0.6-0.2-0.9,0.1
		C40,55,39.8,55,39.6,55c-0.1-0.1-0.4,0-0.6-0.2l0,0.1c0,0-0.3-0.2-0.4,0c0-0.1-0.1-0.1-0.1-0.1l0,0c-0.1-0.3-0.2-0.3-0.4-0.3
		c-0.4,0.1-0.8,0.4-1.1,0.2c-0.2,0.1-0.7-0.1-0.8-0.2c-0.2,0,0-0.2-0.2-0.1c0-0.2-0.2-0.2-0.5-0.3l0,0.1L35,54c0,0,0,0.1-0.1,0.1
		l0-0.1c-0.3-0.2-0.2,0-0.5-0.2l0,0.1c-0.3-0.4-1.2-0.7-2-0.8l0,0c-0.7-0.2-1.4-0.4-2-0.7c-0.1-0.1-0.1-0.2-0.3-0.4
		c-0.3-0.2-0.7-0.5-1-0.4c0.1-0.1-0.2-0.1-0.2-0.2l-0.1,0.2c0,0-0.2-0.4-0.4-0.3c0.1,0.1-0.3-0.4-0.4-0.1l-0.1,0l0.1,0l-0.1-0.2
		l-0.1,0c0-0.2-0.2-0.4-0.6-0.5c0.1-0.2-0.2-0.3-0.2-0.3c0-0.5-0.7-0.3-0.6-0.8c-0.2,0-0.3-0.4-0.3-0.5c0.1-0.2-0.1-0.2-0.1-0.4
		c-0.1,0-0.1-0.1-0.2,0c0-0.5-0.9-1-1.1-1.6c-0.2,0.1-0.2-0.4-0.4-0.4l0,0.1c-0.1-0.1,0-0.3-0.1-0.5c-0.1-0.1-0.2-0.4-0.3-0.5
		c-0.3-0.6,0-1.1-0.5-1.8c-0.1-0.5-0.1-1-0.4-1.5l0,0c-0.1-0.1,0-0.3-0.2-0.3c0,0,0.1,0,0.1,0c-0.2-0.3-0.3-0.7-0.7-0.8
		c0,0,0.1,0,0.1,0c0-0.2-0.1-0.1-0.2-0.2l0,0l-0.1-0.1c0.1,0,0.1-0.1,0.1-0.2l-0.2-0.3c-0.1,0.1,0,0,0,0l-0.1-0.1l0,0
		c-0.1,0,0-0.5-0.3-0.3l0,0c-0.1-0.1-0.1-0.3-0.3-0.4c0.1,0,0.1,0,0.1-0.1l-0.1,0.1c0.2-0.1,0-0.2,0-0.4l-0.1,0
		c0-0.1,0.1-0.2-0.1-0.3l-0.1,0c0.1,0,0.1-0.1,0.1-0.1c-0.1,0-0.1,0-0.2,0.1l0.2-0.1c-0.3-0.3-0.2-0.6-0.2-1
		c0.1-0.1,0.2-0.1,0.1-0.3c-0.1-0.1,0.3-0.6,0.1-0.8c0.2-0.1,0-0.2,0-0.2c-0.1,0-0.2,0.1-0.3,0.1l0.1,0.1l-0.2,0
		c0.8-0.1,0.4-0.7,0.6-1.1c0-0.2-0.3-0.3-0.2-0.6l0,0c0.2,0,0.1-0.2,0.1-0.3l-0.3-0.1c0.2,0,0.1-0.3,0-0.3l-0.3-0.4
		c-0.1-0.5,0.1-1,0.2-1.4l-0.1-0.6c0.1,0,0.2-0.1,0.2-0.2l-0.1-0.1l0,0l0.3-0.8l-0.1,0c-0.1-0.5,0.6-0.8,0.7-1.1
		c0.3-0.4,0.5-0.7,0.4-1.2l0.2,0.1c-0.1-0.3,0.3-0.6,0-0.9l0,0c0-0.5,0.1-0.5,0.4-0.9c0.1-0.2,0.4-0.6,0.6-0.6
		c0.2-0.3,0.1-0.5,0.4-0.6l-0.1-0.1l0.2,0c0-0.1,0.1-0.2,0-0.3c0,0.1,0.1,0,0.2,0.1c0.2,0,0.3-0.2,0.3-0.4c0,0,0-0.1-0.1-0.1
		l0.1-0.2l-0.1-0.1c0.1,0.1,0.3-0.2,0.3-0.3l0,0l-0.1-0.2l0,0l0.1,0.2c0.5-0.2,0.3-0.6,0.8-0.8c0.4-0.2,0.5-0.4,0.7-0.6l0-0.3
		c0.3,0.3,0.3-0.1,0.6-0.1l0-0.1l0.1,0l0.1-0.2l-0.1,0c0.3-0.5,0.1-1,0.4-1.3c0.4,0.2,0.5-0.5,0.9-0.6c0.1-0.2,0.3-0.7,0.5-0.9
		l0-0.1c0,0,0.1,0,0.1,0c0-0.1,0-0.1,0-0.2c0.3-0.5,1.1,0,1-0.7C29.8,17.9,30.2,18,30.4,17.7"/>
	<path fill="#FFD456" d="M62.5,15.4l0-0.1c0,0.1-0.1,0.2,0.1,0.2c0-0.2,0.2,0.1,0.2-0.1c0-0.1-0.1,0.1,0.1,0.2
		c0.2-0.1,0.3-0.2,0.3-0.4c0.3,0.2,0.6,0,0.9,0.2c0.2-0.2,0.5,0.1,0.7,0c0.1,0.2,0.3,0.1,0.5,0.1c0-0.2,0.5,0.2,0.4-0.1
		c0,0.3,0.4,0.1,0.6,0.2c0.4-0.2,1-0.3,1-0.9c0.2,0.1,0.5-0.1,0.6,0.2c0,0,0.2,0.1,0.2-0.1l0,0c0.1,0.1,0.5,0,0.6,0.1
		c0.2-0.2,0.7-0.2,1-0.2c0.3-0.1,0.6-0.1,0.9-0.3c0.4-0.1,0.9,0,1.5,0c0-0.3,0.4-0.1,0.5-0.2c0.3,0.1,0.7-0.2,1.1-0.1l0-0.1v0
		c0.1,0.2,0.4-0.1,0.6-0.2c0.1-0.1,0.3-0.2,0.5-0.2l0.1,0c0.2,0.3,0.7,0,1,0l0-0.1c-0.1,0.2,0.1,0.1,0.2,0.1l0.4-0.1
		c-0.2,0-0.2,0.1-0.2,0.3l0.1,0c0,0.1-0.2,0.2,0,0.3l0.3-0.1c-0.1,0.3,0.3,0.7,0.1,0.9c0,0.1,0,0.1,0,0.3h0
		c-0.2-0.1-0.2,0.4-0.5,0.4c0,0.2,0,0.3,0,0.5c0,0,0,0-0.1,0c-0.1,0.2-0.2,0.4-0.2,0.6l-0.2,0l-0.1,0.1l0.2,0
		c-0.1,0-0.3-0.1-0.4,0.1c-0.2,0.3-0.8,0.4-0.9,0.7c0,0.1-0.2,0.2-0.3,0.4c-0.1-0.1-0.2,0-0.3,0c0,0,0,0.1,0,0.1
		c0,0.1-0.2-0.2-0.2,0c0,0.1-0.1,0-0.1,0.1l0.1,0.1l-0.2-0.1c0,0-0.1,0.1,0,0.1c-0.2-0.1-0.5,0.3-0.7,0.5l0.1,0.1
		c-0.1,0.1-0.2,0.3-0.4,0.3c0,0.1,0,0.1,0,0.2c0-0.1-0.1-0.1-0.2-0.1l-0.3,0.3l-0.1-0.1C72,19.7,72,19.7,72,19.9
		c-0.1-0.1-0.2,0.1-0.2,0.2c0,0.3-0.4,0.5-0.5,0.6c-0.1,0-0.1,0.2-0.2,0.1c0,0,0,0,0,0.1c0.1,0.1,0.2,0.1,0.3,0
		c-0.2,0.2-0.4,0-0.5,0.2l0.1,0.1c0.1,0.1-0.4-0.1-0.3,0.2c0.1,0-0.1,0-0.1,0.1h0c-0.1,0,0,0.1,0,0.2c-0.2,0.1,0,0.1,0,0.3
		c0.2,0.1-0.2-0.2-0.2,0.1l0.1,0.1l-0.3,0.1c0.1,0.1-0.1,0.3-0.2,0.3c-0.2-0.2-0.2,0.1-0.3,0.1c-0.2,0-0.4,0.2-0.5,0.3l0.1,0.2
		l-0.1,0c0,0.1-0.5,0.3-0.3,0.4c-0.1,0-0.2-0.1-0.3,0c0,0-0.1,0.1,0,0.1c0,0.1-0.3,0-0.4,0.3c0.1,0-0.2,0-0.1,0.2l-0.1,0l0.1,0.2
		c-0.1,0-0.1-0.1-0.2-0.1c0.1,0.2-0.1-0.1-0.2,0.1l-0.1,0.2l0,0c-0.2,0.1-0.4,0.3-0.6,0.5l0,0.1l-0.1,0c0,0.2,0.1,0.3,0.3,0.3
		L67.3,25c0.1,0.2-0.2,0-0.2,0.1c-0.1,0-0.4-0.1-0.7,0c0,0.1-0.1,0.1-0.1,0.2c0,0.1-0.3-0.3-0.3,0c0,0.1-0.2-0.1-0.3,0.1l-0.1,0
		c-0.1,0.3-0.2,0.2-0.3,0.4c-0.2,0-0.3,0.2-0.5,0c-0.1,0.1-0.3,0.3-0.5,0.4c0-0.1,0.1-0.3-0.1-0.3c0,0,0,0.1,0,0.1l0,0
		c-0.1,0.2-0.2,0.1-0.3,0c0.2-0.2-0.3-0.3-0.2-0.5c-0.7-0.1-0.1-0.6-0.6-0.9l0,0c-0.2-0.2-0.2-0.4-0.6-0.6l0.3,0l0-0.2l-0.3,0
		c0.1,0,0.1-0.2,0.1-0.3c-0.2-0.2-0.4-0.4-0.5-0.7c0-0.1,0.1-0.3-0.1-0.3c-0.2-0.6-0.4-1-1-1.3l0,0c0.1-0.4-0.3-0.5-0.5-1l0,0
		c0-0.6-0.8-1.2-0.7-1.7c0.1-0.2-0.2-0.3-0.2-0.4l-0.4,0.3c0.1-0.1,0.5-0.3,0.3-0.6c0-0.2-0.1-0.2-0.1-0.4l0.1,0
		c-0.1-0.4,0.3,0,0.5-0.2c0.2,0,0.5,0.2,0.6,0c0.1-0.1,0-0.1,0-0.2l0,0c0.5,0,0.2-0.5,0.6-0.6c0-0.1,0.5-0.5,0.6-0.4
		c0-0.2,0.2-0.1,0.2-0.2c0-0.4,0.5-0.1,0.5-0.6l-0.1-0.1C62.3,15.5,62.4,15.5,62.5,15.4"/>
	<path fill="#FFD456" d="M29.6,54.3c0.3,0,0.1-0.2,0.4-0.1c0.1,0.3,0.9,0.1,1.1,0.6c0.2,0.1,0.3,0.1,0.4,0.3c0.2-0.1,0.1,0.2,0.3,0
		l-0.2,0.1c0.3,0.4,1.3,0,1.8,0.5c0.2,0,0.3,0.1,0.4,0.2c0.4,0.1,0.7,0,1,0.2c0.1-0.2,0.2,0.2,0.3,0.2c0,0,0,0-0.1-0.1
		c-0.1,0.1,0.1,0.2,0.1,0.3l0.1,0c0.2,0.3,0.7,0.2,1,0.4c0.5,0,1.1,0.7,1.7,0.7l0.2,0.1c0-0.1-0.1-0.2-0.1-0.3
		c0.1,0.2,0.2,0.4,0.4,0.4c0.1-0.1,0,0-0.1,0c0,0.3,0.5,0.3,0.7,0.5c0.3,0.4,0.7,0,1,0.1c0,0,0,0-0.1,0.1c0.4,0,0.5,0.5,0.8,0.6
		c0,0,0,0-0.1,0l0.1,0.2l0,0c0,0.2,0,0.6,0,0.7l0-0.1c-0.2,0.1-0.3,0.2-0.4,0.4l0.2,0.4l0,0c-0.1,0.4,0.1,0.4-0.2,0.8l-0.1,0
		c0,0.2,0.1,0.1-0.1,0.2c0.3,0.2-0.3,0.3,0,0.5c-0.1,0.1-0.1,0-0.2,0.1c0.3,0.2-0.2,0.3,0.1,0.5c0,0,0,0-0.1,0.1
		c0,0.1,0.1,0.1,0.2,0.1c-0.1,0.1-0.2,0.2-0.3,0.4c0.1,0.1,0-0.1,0,0c-0.4,0.1,0,0.3-0.3,0.5l-0.1,0.1l0.1,0c-0.2,0.2-0.4-0.2-0.6,0
		c-0.2,0-0.5,0.2-0.6,0.4c0,0.2-0.1,0.1-0.1,0.2l0.1,0c0,0.1-0.2,0.1-0.2,0.2c0,0.1,0-0.1-0.1-0.1c-0.2,0-0.3,0.3-0.4,0.4
		c0.2,0.2-0.5,0.3-0.3,0.6l0.2,0.2L37,65.5c-0.1,0.2,0,0.4,0,0.4c-0.1,0.2-0.6-0.2-0.5,0.1l0,0.1c-0.1-0.1-0.2,0-0.3,0.1
		c0.2,0.2-0.4,0.2,0,0.4l0,0l0,0.1l-0.2,0L36,66.7c0,0,0,0,0-0.1c-0.2,0.3-0.5,0.7-0.8,0.8c0,0.2,0,0.2-0.1,0.3c0,0,0,0-0.1-0.1
		c-0.3,0.3,0.1,0.7-0.2,1l0,0l-0.5,0.5l0.1,0.1c-0.2,0-0.1,0.2-0.2,0.1c0,0.1-0.1,0.1-0.2,0.1c-0.6,0.5-0.9,1.3-1.3,1.8h0
		c-0.4,0.6-0.7,1-1,1.5c-0.3,0.3-1,0.3-1.2,1c-0.3,0.1-0.3,0-0.5,0.3L29.7,74c-0.1,0.3,0-0.1-0.2,0c-0.2-0.2-0.2,0.1-0.4,0.1
		c-0.3-0.1-0.2-0.5-0.3-0.8c0-0.2,0-0.8,0.2-1c0-0.2,0.1-0.4,0.2-0.6c-0.1-0.1,0-0.6,0-0.7L29,71c0.2-0.2,0.2-0.6,0.2-0.8
		c-0.2,0,0.1-0.2,0.1-0.4c0-0.2,0-0.2,0-0.5c0.2-0.2,0.1-0.2,0.1-0.4c0.1,0,0.2-0.3,0.2-0.5c-0.1,0-0.1-0.1-0.1-0.2
		c0,0.1,0.1,0,0.1,0.1l0-0.2c0,0,0-0.1-0.1-0.1l0,0c0.2-0.1,0-0.4,0.2-0.6c-0.2-0.1,0.1-0.3-0.1-0.4c0,0,0.1-0.4-0.1-0.3
		c0-0.3,0.1-0.7,0.2-0.8l0-0.1c0.2,0,0-0.2,0.1-0.3l0,0l0-0.1l0,0l0,0c0.1,0,0.1-0.1,0.1-0.1l-0.1-0.1c0,0,0.1,0,0.1,0
		c0-0.1-0.1-0.3-0.3-0.3c0.1,0.1,0.1,0,0.2,0l0-0.1l-0.1,0l0-0.1l0.1,0c-0.1-0.1,0.1-0.3,0.2-0.4l-0.1-0.1c-0.1-0.2-0.1-0.3,0.1-0.5
		c-0.4-0.1-0.1-0.5-0.1-0.7c0,0,0-0.1,0-0.1c-0.1,0.1-0.1-0.1-0.1-0.2c0.1-0.1,0-0.2-0.1-0.3c-0.1,0-0.1,0-0.1,0
		c-0.1-0.2,0.1-0.4,0.1-0.6c-0.1-0.1-0.1,0-0.1-0.2l-0.1,0c0.1,0,0.2,0,0.2-0.1l-0.1-0.1l0.1-0.1l-0.1,0c0-0.2,0.2-0.5,0.1-0.6
		c0-0.1,0.2-0.3,0-0.4c-0.1,0,0.4,0,0.2-0.3l-0.1,0c0,0,0.1,0,0.1,0l0-0.2c0.2,0.1,0.1-0.1,0.2-0.2l-0.1-0.1c0.1,0,0.3-0.3,0.3-0.5
		l-0.2,0c0,0,0.1,0,0.1,0l-0.2-0.5l0,0c-0.1-0.2-0.1-0.3,0-0.5l-0.1,0c0,0,0.1,0,0.1-0.1l0,0l0-0.1l0,0c0,0,0,0,0.1,0.1
		c0.2-0.2,0.1-0.4,0.2-0.6c-0.2-0.3,0.1-1-0.2-1.5c-0.3-0.5-0.5-0.8-0.7-1.3c0-0.1,0.3-0.1,0.1-0.3C29.3,54.3,29.4,54.3,29.6,54.3"
		/>
	<path fill="#FFD456" d="M63.8,44.7c0.1,0,0.3,0,0.3-0.1c0.2,0.2,0.4-0.1,0.7-0.1c0.2,0.4,0.8,0.3,0.6,0.7c0.3,0.1,0.3,0.3,0.7,0.2
		l0,0.1c0,0.1,0.7,0.3,0.9,0.4c0.2,0.1,0.4,0.2,0.6,0.2c0,0-0.1,0-0.1,0c0.2,0.2,0.4,0.7,0.9,0.7c0,0.1,0.2,0.1,0.3,0.2l0,0
		c-0.1,0.1,0,0.2,0,0.3c0.1,0,0.1,0.2,0.3,0.3c0.4,0.2,0.7,0.7,0.9,0.9l0,0c0.3,0.3,0.3,0.4,0.7,0.4c0.2,0-0.1-0.1-0.1,0
		c0.1,0.3,1,0.1,0.7,0.7c0.4-0.1-0.1,0.4,0.4,0.4c0.1,0.1,0.1,0.2,0.3,0.3c0.2,0.1,0.6,0.4,0.9,0.6l0,0.1l0.1,0l0,0
		c0.1,0.2-0.1,0.5,0.3,0.7l0.2-0.1l-0.1,0.1c0.3,0.1,0.3,0.3,0.5,0.3c0-0.1,0,0.1,0.1,0.1c0,0,0.1,0,0.1,0c0,0,0,0.1,0,0.1
		c0,0,0.1,0.1,0.1,0c0,0.2,0.4,0.1,0.5,0.3l0-0.1c0,0.2,0.1,0,0.1,0.1l0,0c0,0,0.1,0.1,0.1,0.1l0.1,0c-0.1,0-0.1,0.1-0.1,0.2
		c0.2,0.1,0,0.5,0.3,0.5l0-0.1c-0.1,0.2,0,0.2,0.1,0.3h0c0.1-0.1-0.1,0.1,0.1,0.1c-0.2,0.1,0.1,0.4,0.3,0.5c0,0.1,0,0.2,0.1,0.3
		c0,0,0-0.1,0.1-0.1c-0.2,0.4,0.2,0.3,0,0.6l0.2,0.1c-0.1,0.1,0.1,0.1,0.1,0.1c0.1,0.1-0.1,0,0,0.1l0.1,0.1l0,0.1l0.1,0.1
		c-0.2,0,0,0.1-0.1,0.2l0,0L75.6,56c-0.2-0.1-0.6,0.4-0.9,0.2l0,0.1c0.1-0.2-0.5-0.1-0.7-0.2c-0.1,0.2-0.4-0.2-0.7-0.1
		c-0.4,0.1-1,0.1-1.3,0.2l-0.1,0c0,0,0,0,0.1-0.1c-0.2-0.1-0.4,0.1-0.6-0.1c-0.1,0.1-0.2-0.1-0.2,0.1l0,0c0-0.1-0.3,0.1-0.4,0l0,0.1
		l-0.3,0.1c0,0,0,0,0.1-0.1c0-0.1-0.1,0-0.1,0l0-0.1c-0.1,0-0.1-0.1-0.2,0c-0.1,0.2-0.3-0.1-0.5,0.1c0,0,0.1,0,0.1-0.1L69.7,56
		l0,0.1c-0.1,0-0.3-0.2-0.5-0.1l0-0.1c-0.2,0.2-0.1-0.2-0.3-0.1c0-0.1-0.3-0.2-0.4-0.2c-0.3,0.2-0.1-0.2-0.4,0
		c0-0.3-0.5-0.3-0.7-0.4c0,0.1-0.3-0.1-0.4,0.1l-0.5-0.2c-0.2,0.1-0.5,0-0.8,0.1c-0.9-0.2-1.5,0.1-2.2-0.4c-0.2,0-0.4,0-0.6-0.1
		c0,0.2-0.2,0.1-0.3,0.1c-0.1-0.1-0.1,0-0.1,0l0,0.1c-0.2-0.3-0.8-0.4-1.3-0.4c-0.4,0-0.7-0.4-1.1-0.2l0-0.1
		c-0.5-0.2-0.9-0.6-1.5-0.5l0,0.1l0-0.1c-0.1,0-0.1,0-0.2,0.1c0.1,0,0.1-0.1,0.1-0.1c-0.1-0.1-0.1-0.2-0.2-0.1c0-0.2,0-0.4-0.1-0.6
		c-0.2-0.2,0.1-0.4,0.1-0.7c0.3-0.2,0.1-0.7,0.5-0.8c0-0.3,0.5-0.4,0.4-0.7c0.2,0.1,0.2-0.2,0.3-0.3c-0.3-0.4,0.3-0.1,0.3-0.5l0,0
		c0.2-0.2,0.8-0.3,0.8-0.6l0,0c0.2-0.1,0.7-0.4,0.6-0.7l0,0c0.2,0.1,0.4-0.4,0.2-0.3l0,0c0.1,0,0.1-0.2,0.1-0.3
		c0.5-0.5,0.4-1,0.8-1.4c0-0.4,0.3-0.7,0.6-1.1c0.3-0.1,0.6-0.8,0.9-1l0.1-0.3V44.7z"/>
</g>
</svg>
